<?xml version="1.0" encoding="UTF-8"?>
<svg width="35px" height="25px" viewBox="0 0 35 25" version="1.1" xmlns="http://www.w3.org/2000/svg" xmlns:xlink="http://www.w3.org/1999/xlink">
    <title>Group 3</title>
    <g id="Page-1" stroke="none" stroke-width="1" fill="none" fill-rule="evenodd">
        <g id="Group-3">
            <g id="Group" transform="translate(16.000000, 0.000000)" fill="#2870BC">
                <polygon id="Path-2-Copy-2" points="2.1539869e-14 4.48829362 2.15432702e-14 6.39375659 5.42479908 9.13494792 2.00841507e-14 11.9219055 0 13.8337712 7.8426585 9.96239715 7.8426585 8.20855262"></polygon>
                <polygon id="Path-2-Copy-3" points="9.64975305 -7.62846576e-14 9.64975305 2.46753115 16.0361088 6.01731149 9.64975305 9.62635806 9.64975305 12.0466399 18.8825386 7.08883941 18.8825386 4.81765068"></polygon>
            </g>
            <path d="M7.04888889,7.5 C11.0066667,7.5 12.8266667,10.0133333 12.8266667,14.2311111 L12.8266667,14.2311111 L12.8266667,23.7933333 L10.1111111,23.7933333 L9.82222222,21.9733333 L9.73555556,21.9733333 C8.29111111,23.2155556 6.58666667,24.1688889 4.68,24.1688889 C1.93555556,24.1688889 -4.97379915e-14,22.3777778 -4.97379915e-14,19.5755556 C-4.97379915e-14,16.1666667 2.88888889,14.4044444 9.50444444,13.6822222 C9.47555556,11.8333333 8.81111111,10.2155556 6.47111111,10.2155556 C4.79555556,10.2155556 3.23555556,10.9666667 1.87777778,11.8333333 L1.87777778,11.8333333 L0.635555556,9.58 C2.28222222,8.54 4.50666667,7.5 7.04888889,7.5 Z M9.50444444,15.7911111 C4.79555556,16.3688889 3.20666667,17.5533333 3.20666667,19.3444444 C3.20666667,20.9044444 4.27555556,21.54 5.69111111,21.54 C7.07777778,21.54 8.20444444,20.8755556 9.50444444,19.6911111 L9.50444444,19.6911111 Z" id="Combined-Shape" fill-opacity="0.9" fill="#FFFFFF" fill-rule="nonzero"></path>
        </g>
    </g>
</svg>