<?xml version="1.0" encoding="UTF-8"?>
<svg width="120px" height="27px" viewBox="0 0 120 27" version="1.1" xmlns="http://www.w3.org/2000/svg" xmlns:xlink="http://www.w3.org/1999/xlink">
    <title>Group 2</title>
    <g id="Page-1" stroke="none" stroke-width="1" fill="none" fill-rule="evenodd">
        <g id="Group-2">
            <path d="M4.212,20.852 C5.928,20.852 7.462,19.994 8.762,18.876 L8.84,18.876 L9.1,20.514 L11.544,20.514 L11.544,11.908 C11.544,8.112 9.906,5.85 6.344,5.85 C4.056,5.85 2.054,6.786 0.572,7.722 L1.69,9.75 C2.912,8.97 4.316,8.294 5.824,8.294 C7.93,8.294 8.528,9.75 8.554,11.414 C2.6,12.064 0,13.65 0,16.718 C0,19.24 1.742,20.852 4.212,20.852 Z M5.122,18.486 C3.848,18.486 2.886,17.914 2.886,16.51 C2.886,14.898 4.316,13.832 8.554,13.312 L8.554,16.822 C7.384,17.888 6.37,18.486 5.122,18.486 Z M22.0393333,20.852 C23.6773333,20.852 25.3673333,20.254 26.6673333,19.084 L25.4453333,17.108 C24.5873333,17.836 23.5213333,18.408 22.3253333,18.408 C19.9333333,18.408 18.2953333,16.406 18.2953333,13.39 C18.2953333,10.348 20.0113333,8.32 22.4033333,8.32 C23.3913333,8.32 24.1973333,8.736 24.9773333,9.438 L26.4593333,7.488 C25.4193333,6.578 24.0933333,5.85 22.2733333,5.85 C18.5033333,5.85 15.2013333,8.606 15.2013333,13.39 C15.2013333,18.122 18.1653333,20.852 22.0393333,20.852 Z M41.2966667,26.312 L41.2966667,6.214 L38.9306667,6.214 L38.6706667,7.592 L38.5666667,7.592 C37.3706667,6.448 36.2006667,5.85 34.5886667,5.85 C31.3906667,5.85 28.4526667,8.736 28.4526667,13.39 C28.4526667,18.122 30.7666667,20.852 34.3546667,20.852 C35.8886667,20.852 37.3446667,20.046 38.4366667,18.98 L38.3066667,21.45 L38.3066667,26.312 L41.2966667,26.312 Z M35.0566667,18.382 C32.8206667,18.382 31.5466667,16.588 31.5466667,13.338 C31.5466667,10.244 33.1586667,8.346 35.1606667,8.346 C36.2266667,8.346 37.2406667,8.684 38.3066667,9.646 L38.3066667,16.64 C37.2666667,17.836 36.2526667,18.382 35.0566667,18.382 Z M52,20.514 L53.742,13.468 C54.106,12.116 54.366,10.79 54.652,9.308 L54.782,9.308 C55.094,10.79 55.354,12.09 55.692,13.442 L57.512,20.514 L61.1,20.514 L64.792,6.214 L61.984,6.214 L60.138,13.962 C59.826,15.34 59.592,16.666 59.306,18.018 L59.202,18.018 C58.864,16.666 58.578,15.34 58.24,13.962 L56.186,6.214 L53.404,6.214 L51.402,13.962 C51.064,15.314 50.778,16.666 50.466,18.018 L50.362,18.018 C50.102,16.666 49.868,15.34 49.582,13.962 L47.684,6.214 L44.668,6.214 L48.542,20.514 L52,20.514 Z M69.6713333,3.536 C70.7633333,3.536 71.5953333,2.808 71.5953333,1.768 C71.5953333,0.702 70.7633333,0 69.6713333,0 C68.5793333,0 67.7733333,0.702 67.7733333,1.768 C67.7733333,2.808 68.5793333,3.536 69.6713333,3.536 Z M71.1533333,20.514 L71.1533333,6.214 L68.1893333,6.214 L68.1893333,20.514 L71.1533333,20.514 Z M79.0486667,20.514 L79.0486667,11.596 C79.9586667,9.334 81.3626667,8.528 82.5326667,8.528 C83.1046667,8.528 83.4686667,8.606 83.9626667,8.762 L84.5086667,6.162 C84.0666667,5.954 83.5986667,5.85 82.8966667,5.85 C81.3626667,5.85 79.8546667,6.942 78.8406667,8.788 L78.7626667,8.788 L78.5286667,6.214 L76.0846667,6.214 L76.0846667,20.514 L79.0486667,20.514 Z M92.82,20.852 C94.692,20.852 96.33,20.228 97.656,19.344 L96.616,17.446 C95.576,18.122 94.484,18.512 93.21,18.512 C90.74,18.512 89.024,16.874 88.79,14.144 L98.072,14.144 C98.15,13.806 98.202,13.208 98.202,12.636 C98.202,8.58 96.174,5.85 92.378,5.85 C89.024,5.85 85.852,8.736 85.852,13.39 C85.852,18.096 88.946,20.852 92.82,20.852 Z M95.628,12.09 L88.764,12.09 C89.05,9.568 90.636,8.19 92.43,8.19 C94.51,8.19 95.628,9.62 95.628,12.09 Z" id="acqwire" fill-opacity="0.9" fill="#FFFFFF" fill-rule="nonzero"></path>
            <g id="Group" transform="translate(103.000000, 0.000000)" fill="#2870BC">
                <polygon id="Path-2-Copy-2" points="2.16063281e-14 4.03946426 2.16093892e-14 5.75438093 4.88231917 8.22145312 2.02961817e-14 10.7297149 2.22044605e-15 12.4503941 7.05839265 8.96615743 7.05839265 7.38769736"></polygon>
                <polygon id="Path-2-Copy-3" points="8.68477775 -6.30606678e-14 8.68477775 2.22077804 14.4324979 5.41558034 8.68477775 8.66372225 8.68477775 10.8419759 16.9942848 6.37995547 16.9942848 4.33588561"></polygon>
            </g>
        </g>
    </g>
</svg>