<?xml version="1.0" encoding="UTF-8"?>
<svg width="134px" height="30px" viewBox="0 0 134 30" version="1.1" xmlns="http://www.w3.org/2000/svg" xmlns:xlink="http://www.w3.org/1999/xlink">
    <title>Group 2 Copy 2</title>
    <g id="Page-1" stroke="none" stroke-width="1" fill="none" fill-rule="evenodd">
        <g id="Group-2-Copy-2">
            <path d="M4.68,23.1688889 C6.58666667,23.1688889 8.29111111,22.2155556 9.73555556,20.9733333 L9.82222222,20.9733333 L10.1111111,22.7933333 L12.8266667,22.7933333 L12.8266667,13.2311111 C12.8266667,9.01333333 11.0066667,6.5 7.04888889,6.5 C4.50666667,6.5 2.28222222,7.54 0.635555556,8.58 L1.87777778,10.8333333 C3.23555556,9.96666667 4.79555556,9.21555556 6.47111111,9.21555556 C8.81111111,9.21555556 9.47555556,10.8333333 9.50444444,12.6822222 C2.88888889,13.4044444 0,15.1666667 0,18.5755556 C0,21.3777778 1.93555556,23.1688889 4.68,23.1688889 Z M5.69111111,20.54 C4.27555556,20.54 3.20666667,19.9044444 3.20666667,18.3444444 C3.20666667,16.5533333 4.79555556,15.3688889 9.50444444,14.7911111 L9.50444444,18.6911111 C8.20444444,19.8755556 7.07777778,20.54 5.69111111,20.54 Z M24.4881481,23.1688889 C26.3081481,23.1688889 28.1859259,22.5044444 29.6303704,21.2044444 L28.2725926,19.0088889 C27.3192593,19.8177778 26.1348148,20.4533333 24.8059259,20.4533333 C22.1481481,20.4533333 20.3281481,18.2288889 20.3281481,14.8777778 C20.3281481,11.4977778 22.2348148,9.24444444 24.8925926,9.24444444 C25.9903704,9.24444444 26.8859259,9.70666667 27.7525926,10.4866667 L29.3992593,8.32 C28.2437037,7.30888889 26.7703704,6.5 24.7481481,6.5 C20.5592593,6.5 16.8903704,9.56222222 16.8903704,14.8777778 C16.8903704,20.1355556 20.1837037,23.1688889 24.4881481,23.1688889 Z M45.8851852,29.2355556 L45.8851852,6.90444444 L43.2562963,6.90444444 L42.9674074,8.43555556 L42.8518519,8.43555556 C41.522963,7.16444444 40.222963,6.5 38.4318519,6.5 C34.8785185,6.5 31.6140741,9.70666667 31.6140741,14.8777778 C31.6140741,20.1355556 34.1851852,23.1688889 38.1718519,23.1688889 C39.8762963,23.1688889 41.4940741,22.2733333 42.7074074,21.0888889 L42.562963,23.8333333 L42.562963,29.2355556 L45.8851852,29.2355556 Z M38.9518519,20.4244444 C36.4674074,20.4244444 35.0518519,18.4311111 35.0518519,14.82 C35.0518519,11.3822222 36.842963,9.27333333 39.0674074,9.27333333 C40.2518519,9.27333333 41.3785185,9.64888889 42.562963,10.7177778 L42.562963,18.4888889 C41.4074074,19.8177778 40.2807407,20.4244444 38.9518519,20.4244444 Z M57.7777778,22.7933333 L59.7133333,14.9644444 C60.1177778,13.4622222 60.4066667,11.9888889 60.7244444,10.3422222 L60.8688889,10.3422222 C61.2155556,11.9888889 61.5044444,13.4333333 61.88,14.9355556 L63.9022222,22.7933333 L67.8888889,22.7933333 L71.9911111,6.90444444 L68.8711111,6.90444444 L66.82,15.5133333 C66.4733333,17.0444444 66.2133333,18.5177778 65.8955556,20.02 L65.78,20.02 C65.4044444,18.5177778 65.0866667,17.0444444 64.7111111,15.5133333 L62.4288889,6.90444444 L59.3377778,6.90444444 L57.1133333,15.5133333 C56.7377778,17.0155556 56.42,18.5177778 56.0733333,20.02 L55.9577778,20.02 C55.6688889,18.5177778 55.4088889,17.0444444 55.0911111,15.5133333 L52.9822222,6.90444444 L49.6311111,6.90444444 L53.9355556,22.7933333 L57.7777778,22.7933333 Z M77.4125926,3.92888889 C78.6259259,3.92888889 79.5503704,3.12 79.5503704,1.96444444 C79.5503704,0.78 78.6259259,0 77.4125926,0 C76.1992593,0 75.3037037,0.78 75.3037037,1.96444444 C75.3037037,3.12 76.1992593,3.92888889 77.4125926,3.92888889 Z M79.0592593,22.7933333 L79.0592593,6.90444444 L75.7659259,6.90444444 L75.7659259,22.7933333 L79.0592593,22.7933333 Z M87.8318519,22.7933333 L87.8318519,12.8844444 C88.842963,10.3711111 90.402963,9.47555556 91.702963,9.47555556 C92.3385185,9.47555556 92.742963,9.56222222 93.2918519,9.73555556 L93.8985185,6.84666667 C93.4074074,6.61555556 92.8874074,6.5 92.1074074,6.5 C90.402963,6.5 88.7274074,7.71333333 87.6007407,9.76444444 L87.5140741,9.76444444 L87.2540741,6.90444444 L84.5385185,6.90444444 L84.5385185,22.7933333 L87.8318519,22.7933333 Z M103.133333,23.1688889 C105.213333,23.1688889 107.033333,22.4755556 108.506667,21.4933333 L107.351111,19.3844444 C106.195556,20.1355556 104.982222,20.5688889 103.566667,20.5688889 C100.822222,20.5688889 98.9155556,18.7488889 98.6555556,15.7155556 L108.968889,15.7155556 C109.055556,15.34 109.113333,14.6755556 109.113333,14.04 C109.113333,9.53333333 106.86,6.5 102.642222,6.5 C98.9155556,6.5 95.3911111,9.70666667 95.3911111,14.8777778 C95.3911111,20.1066667 98.8288889,23.1688889 103.133333,23.1688889 Z M106.253333,13.4333333 L98.6266667,13.4333333 C98.9444444,10.6311111 100.706667,9.1 102.7,9.1 C105.011111,9.1 106.253333,10.6888889 106.253333,13.4333333 Z" id="acqwire" fill-opacity="0.9" fill="#000000" fill-rule="nonzero"></path>
            <g id="Group" transform="translate(114.444444, 0.000000)" fill="#2870BC">
                <polygon id="Path-2-Copy-2" points="2.40070312e-14 4.48829362 2.40104325e-14 6.39375659 5.42479908 9.13494792 2.2551313e-14 11.9219055 2.46716228e-15 13.8337712 7.8426585 9.96239715 7.8426585 8.20855262"></polygon>
                <polygon id="Path-2-Copy-3" points="9.64975305 -7.00674087e-14 9.64975305 2.46753115 16.0361088 6.01731149 9.64975305 9.62635806 9.64975305 12.0466399 18.8825386 7.08883941 18.8825386 4.81765068"></polygon>
            </g>
        </g>
    </g>
</svg>